<svg width="623" height="788" viewBox="0 0 623 788" fill="none" xmlns="http://www.w3.org/2000/svg">
<path fill-rule="evenodd" clip-rule="evenodd" d="M339 0L156.915 1.59184e-05C70.2533 2.34946e-05 -7.56434e-06 70.1433 0 156.669L4.14962e-05 631.331C4.90606e-05 717.857 70.2534 788 156.915 788L466.085 788C552.747 788 623 717.857 623 631.331L623 274H543.766L543.766 631.331C543.766 674.165 508.987 708.89 466.085 708.89L156.915 708.89C114.013 708.89 79.2345 674.165 79.2345 631.331L79.2344 156.669C79.2344 113.835 114.013 79.1103 156.915 79.1102L339 79.1102V0Z" fill="#5BAC4F"/>
<path fill-rule="evenodd" clip-rule="evenodd" d="M623 197.89H493.915C451.013 197.89 416.234 163.165 416.234 120.331L416.234 0H337L337 120.331C337 206.857 407.253 277 493.915 277L623 277V197.89Z" fill="#5BAC4F"/>
</svg>
