<svg width="151" height="33" viewBox="0 0 151 33" fill="none" xmlns="http://www.w3.org/2000/svg">
<g clip-path="url(#clip0_11_390)">
<path d="M56.4004 6.74902H48.1274C47.5613 6.74902 47.0799 7.08902 46.9916 7.55102L43.6456 25.088C43.5791 25.434 43.9032 25.746 44.3278 25.746H48.2774C48.8436 25.746 49.325 25.406 49.4133 24.943L50.3157 20.213C50.4028 19.75 50.8855 19.41 51.4504 19.41H54.0694C59.519 19.41 62.6641 17.23 63.4855 12.91C63.8557 11.02 63.5012 9.53502 62.4307 8.49502C61.2549 7.35302 59.1694 6.74902 56.4004 6.74902ZM57.3549 13.154C56.9024 15.608 54.6343 15.608 52.4412 15.608H51.1928L52.0686 11.025C52.1206 10.748 52.4109 10.544 52.7496 10.544H53.3218C54.8157 10.544 56.225 10.544 56.9532 11.248C57.3875 11.668 57.5206 12.292 57.3549 13.154Z" fill="#253B80"/>
<path d="M81.1298 13.0751H77.1681C76.8306 13.0751 76.5391 13.2791 76.4871 13.5561L76.3117 14.4721L76.0347 14.1401C75.177 13.1111 73.2645 12.7671 71.3556 12.7671C66.9778 12.7671 63.2387 15.5081 62.5105 19.3531C62.1319 21.2711 62.6702 23.1051 63.9863 24.3841C65.1935 25.5601 66.921 26.0501 68.9762 26.0501C72.5036 26.0501 74.4597 24.1751 74.4597 24.1751L74.2831 25.0851C74.2165 25.4331 74.5407 25.7451 74.9629 25.7451H78.5314C79.0988 25.7451 79.5778 25.4051 79.6673 24.9421L81.8085 13.7331C81.8762 13.3881 81.5532 13.0751 81.1298 13.0751ZM75.6077 19.4491C75.2254 21.3201 73.429 22.5761 71.1379 22.5761C69.9875 22.5761 69.0681 22.2711 68.4778 21.6931C67.8923 21.1191 67.6698 20.3021 67.856 19.3921C68.2129 17.5371 70.0395 16.2401 72.2956 16.2401C73.4206 16.2401 74.3351 16.5491 74.9375 17.1321C75.5411 17.7211 75.7806 18.5431 75.6077 19.4491Z" fill="#253B80"/>
<path d="M102.229 13.075H98.248C97.8681 13.075 97.5113 13.231 97.2959 13.492L91.8052 20.178L89.4778 13.753C89.3314 13.351 88.8826 13.075 88.3746 13.075H84.4625C83.9871 13.075 83.6568 13.459 83.808 13.829L88.1931 24.467L84.0705 29.278C83.7463 29.6569 84.073 30.178 84.633 30.178H88.6092C88.9867 30.178 89.3399 30.026 89.554 29.77L102.795 13.97C103.112 13.592 102.787 13.075 102.229 13.075Z" fill="#253B80"/>
<path d="M115.41 6.74902H107.135C106.571 6.74902 106.089 7.08902 106.001 7.55102L102.655 25.088C102.588 25.434 102.912 25.746 103.335 25.746H107.581C107.975 25.746 108.312 25.508 108.374 25.184L109.324 20.213C109.411 19.75 109.894 19.41 110.458 19.41H113.076C118.527 19.41 121.671 17.23 122.494 12.91C122.865 11.02 122.508 9.53502 121.437 8.49502C120.263 7.35302 118.179 6.74902 115.41 6.74902ZM116.364 13.154C115.913 15.608 113.645 15.608 111.45 15.608H110.203L111.08 11.025C111.132 10.748 111.42 10.544 111.76 10.544H112.332C113.825 10.544 115.235 10.544 115.964 11.248C116.398 11.668 116.53 12.292 116.364 13.154Z" fill="#179BD7"/>
<path d="M140.138 13.0751H136.179C135.839 13.0751 135.55 13.2791 135.499 13.5561L135.323 14.4721L135.045 14.1401C134.188 13.1111 132.276 12.7671 130.367 12.7671C125.99 12.7671 122.252 15.5081 121.523 19.3531C121.146 21.2711 121.682 23.1051 122.998 24.3841C124.208 25.5601 125.933 26.0501 127.988 26.0501C131.515 26.0501 133.471 24.1751 133.471 24.1751L133.295 25.0851C133.228 25.4331 133.552 25.7451 133.977 25.7451H137.544C138.109 25.7451 138.591 25.4051 138.679 24.9421L140.821 13.7331C140.887 13.3881 140.563 13.0751 140.138 13.0751ZM134.616 19.4491C134.236 21.3201 132.437 22.5761 130.146 22.5761C128.998 22.5761 128.076 22.2711 127.486 21.6931C126.9 21.1191 126.68 20.3021 126.864 19.3921C127.223 17.5371 129.048 16.2401 131.304 16.2401C132.429 16.2401 133.343 16.5491 133.946 17.1321C134.552 17.7211 134.791 18.5431 134.616 19.4491Z" fill="#179BD7"/>
<path d="M144.808 7.23005L141.413 25.088C141.346 25.434 141.671 25.746 142.093 25.746H145.506C146.074 25.746 146.555 25.406 146.642 24.943L149.991 7.40705C150.057 7.06105 149.733 6.74805 149.311 6.74805H145.488C145.151 6.74905 144.861 6.95305 144.808 7.23005Z" fill="#179BD7"/>
<path d="M9.2895 29.1539L9.92216 25.8319L8.51288 25.8049H1.78345L6.46006 1.29193C6.47458 1.21793 6.52175 1.14893 6.59071 1.09993C6.65966 1.05093 6.74796 1.02393 6.8399 1.02393H18.1867C21.9536 1.02393 24.5532 1.67193 25.9105 2.95093C26.5468 3.55093 26.952 4.17793 27.148 4.86793C27.3536 5.59193 27.3572 6.45693 27.1564 7.51193L27.1419 7.58893V8.26493L27.7782 8.56293C28.3141 8.79793 28.7399 9.06693 29.0665 9.37493C29.6109 9.88793 29.9629 10.5399 30.1117 11.3129C30.2653 12.1079 30.2145 13.0539 29.9629 14.1249C29.6726 15.3569 29.2032 16.4299 28.5693 17.3079C27.9863 18.1169 27.2435 18.7879 26.3617 19.3079C25.5197 19.8019 24.5193 20.1769 23.3883 20.4169C22.2923 20.6529 21.0427 20.7719 19.6722 20.7719H18.7891C18.1576 20.7719 17.5443 20.9599 17.0629 21.2969C16.5802 21.6409 16.2609 22.1109 16.1629 22.6249L16.0964 22.9239L14.9786 28.7789L14.9278 28.9939C14.9145 29.0619 14.8915 29.0959 14.8576 29.1189C14.8274 29.1399 14.7839 29.1539 14.7415 29.1539H9.2895Z" fill="#253B80"/>
<path d="M28.3807 7.66699C28.3468 7.84599 28.3081 8.02899 28.2645 8.21699C26.7682 14.568 21.6488 16.762 15.1105 16.762H11.7815C10.9819 16.762 10.3081 17.242 10.1835 17.894L8.47905 26.83L7.99638 29.363C7.91534 29.791 8.31453 30.177 8.83711 30.177H14.7415C15.4407 30.177 16.0347 29.757 16.1448 29.187L16.2028 28.939L17.3145 23.107L17.3859 22.787C17.4948 22.215 18.0899 21.795 18.7891 21.795H19.6722C25.3928 21.795 29.871 19.875 31.1799 14.319C31.7266 11.998 31.4436 10.06 29.9968 8.69699C29.5589 8.28599 29.0157 7.94499 28.3807 7.66699Z" fill="#179BD7"/>
<path d="M26.8153 7.15103C26.5867 7.09603 26.3508 7.04603 26.1089 7.00103C25.8657 6.95703 25.6165 6.91803 25.3601 6.88403C24.4625 6.76403 23.479 6.70703 22.4254 6.70703H13.5319C13.3129 6.70703 13.1048 6.74803 12.9186 6.82203C12.5085 6.98503 12.2036 7.30603 12.1298 7.69903L10.2379 17.605L10.1835 17.894C10.3081 17.242 10.9819 16.762 11.7815 16.762H15.1105C21.6488 16.762 26.7681 14.567 28.2645 8.21703C28.3093 8.02903 28.3468 7.84603 28.3806 7.66703C28.002 7.50103 27.5919 7.35903 27.1504 7.23803C27.0415 7.20803 26.929 7.17903 26.8153 7.15103Z" fill="#222D65"/>
<path d="M12.1298 7.699C12.2036 7.306 12.5085 6.985 12.9185 6.823C13.106 6.749 13.3129 6.708 13.5318 6.708H22.4254C23.479 6.708 24.4625 6.765 25.3601 6.885C25.6165 6.919 25.8657 6.958 26.1089 7.002C26.3508 7.047 26.5867 7.097 26.8153 7.152C26.929 7.18 27.0415 7.209 27.1516 7.238C27.5931 7.359 28.0032 7.502 28.3818 7.667C28.827 5.32 28.3782 3.722 26.8431 2.275C25.1508 0.682 22.0964 0 18.1879 0H6.84112C6.04273 0 5.36168 0.48 5.23829 1.133L0.512083 25.898C0.418938 26.388 0.876196 26.83 1.47378 26.83H8.47902L10.2379 17.605L12.1298 7.699Z" fill="#253B80"/>
</g>
<defs>
<clipPath id="clip0_11_390">
<rect width="150" height="33" fill="white" transform="translate(0.5)"/>
</clipPath>
</defs>
</svg>
