<svg width="151" height="54" viewBox="0 0 151 54" fill="none" xmlns="http://www.w3.org/2000/svg">
<path fill-rule="evenodd" clip-rule="evenodd" d="M72.3782 10.0572C67.2858 10.0576 63.1577 14.1792 63.1577 19.2637V49.7117C63.1577 50.2296 62.7372 50.6494 62.2184 50.6494C61.6997 50.6494 61.2792 50.2296 61.2792 49.7117V19.2637C61.2792 13.1433 66.2487 8.18188 72.3789 8.18188H72.3803L81.3854 8.19543C87.4986 8.20755 92.4481 13.1587 92.4481 19.2621V25.7431C92.4481 31.8634 87.4783 36.8248 81.3482 36.8248H68.6241C68.1053 36.8248 67.6848 36.405 67.6848 35.8871C67.6848 35.3693 68.1053 34.9495 68.6241 34.9495H81.3482C86.4409 34.9495 90.5696 30.8277 90.5696 25.7431V19.2621C90.5696 14.1931 86.4592 10.0811 81.3822 10.0708C81.382 10.0708 81.3819 10.0708 81.3817 10.0708L72.3789 10.0572C72.3787 10.0572 72.3784 10.0572 72.3782 10.0572Z" fill="#939598"/>
<path fill-rule="evenodd" clip-rule="evenodd" d="M92.8377 9.12113C92.8377 8.6024 93.2656 8.18188 93.7935 8.18188H97.7685C100.64 8.18188 102.968 10.4694 102.968 13.2911V36.0738C102.968 36.5925 102.54 37.0131 102.012 37.0131C101.484 37.0131 101.056 36.5925 101.056 36.0738V13.2911C101.056 11.5067 99.5843 10.0604 97.7685 10.0604H93.7935C93.2656 10.0604 92.8377 9.63986 92.8377 9.12113Z" fill="#939598"/>
<path d="M101.191 5.51165L99.4041 3.72457C98.9605 3.28123 98.9605 2.56231 99.4041 2.11897L101.19 0.333013C101.634 -0.111004 102.354 -0.111004 102.797 0.333013L104.583 2.11897C105.026 2.56231 105.026 3.28123 104.583 3.72457L102.796 5.51165C102.353 5.95499 101.634 5.95499 101.191 5.51165Z" fill="#32BCAD"/>
<path fill-rule="evenodd" clip-rule="evenodd" d="M108.422 9.1215C108.422 8.60257 108.845 8.18188 109.366 8.18188H113.259C115.513 8.18188 117.674 9.07294 119.267 10.6586L128.373 19.7231L128.373 19.7232C129.184 20.5304 130.499 20.5305 131.31 19.7231L140.383 10.6918L140.383 10.6918C141.977 9.10615 144.137 8.21507 146.391 8.21507H149.556C150.077 8.21507 150.5 8.63575 150.5 9.15469C150.5 9.67362 150.077 10.0943 149.556 10.0943H146.391C144.638 10.0943 142.957 10.7873 141.718 12.0207L132.645 21.052C131.097 22.5931 128.586 22.5932 127.038 21.052C127.038 21.0519 127.038 21.0519 127.038 21.0519L117.932 11.9874C116.693 10.7542 115.012 10.0611 113.259 10.0611H109.366C108.845 10.0611 108.422 9.64044 108.422 9.1215Z" fill="#939598"/>
<path fill-rule="evenodd" clip-rule="evenodd" d="M131.31 25.0821C130.499 24.2748 129.184 24.2749 128.373 25.0821L128.373 25.0821L119.267 34.1466C117.674 35.7323 115.513 36.6234 113.259 36.6234H109.366C108.845 36.6234 108.422 36.2027 108.422 35.6838C108.422 35.1648 108.845 34.7442 109.366 34.7442H113.259C115.012 34.7442 116.693 34.0511 117.932 32.8178L127.038 23.7534C127.038 23.7534 127.038 23.7533 127.038 23.7533C128.586 22.2121 131.097 22.2122 132.645 23.7533L141.718 32.7846C142.957 34.0179 144.638 34.711 146.391 34.711H149.556C150.077 34.711 150.5 35.1316 150.5 35.6506C150.5 36.1695 150.077 36.5902 149.556 36.5902H146.391C144.137 36.5902 141.977 35.6991 140.383 34.1135L140.383 34.1135L131.31 25.0821Z" fill="#939598"/>
<path d="M38.952 41.6141C37.0007 41.6141 35.1652 40.8495 33.7853 39.4615L26.325 31.9541C25.8012 31.4256 24.8883 31.4272 24.3647 31.9541L16.8772 39.489C15.4972 40.8769 13.6618 41.6415 11.7104 41.6415H10.2402L19.689 51.1495C22.6397 54.1189 27.4241 54.1189 30.3751 51.1495L39.8506 41.6141H38.952Z" fill="#32BCAD"/>
<path d="M11.71 15.2342C13.6614 15.2342 15.4969 15.9983 16.8769 17.3855L24.3645 24.9169C24.9038 25.4595 25.7842 25.4615 26.3248 24.9163L33.7852 17.4129C35.1652 16.0258 37.0006 15.2617 38.952 15.2617H39.8506L30.3752 5.73218C27.4239 2.7644 22.6395 2.7644 19.6887 5.73218L10.2402 15.2342L11.71 15.2342Z" fill="#32BCAD"/>
<path d="M47.7789 23.1866L42.0826 17.5549C41.9572 17.6046 41.8214 17.6356 41.678 17.6356H39.088C37.749 17.6356 36.4383 18.1725 35.4921 19.1086L28.0708 26.446C27.3763 27.1326 26.4637 27.4761 25.552 27.4761C24.6394 27.4761 23.7275 27.1326 23.0332 26.4466L15.5839 19.0818C14.6377 18.1455 13.327 17.6087 11.988 17.6087H8.80334C8.66751 17.6087 8.54058 17.5771 8.42075 17.5325L2.70174 23.1866C-0.233913 26.089 -0.233913 30.7943 2.70174 33.6967L8.42052 39.3507C8.54057 39.306 8.66751 39.2744 8.80334 39.2744H11.988C13.327 39.2744 14.6377 38.7377 15.5839 37.8016L23.0325 30.4374C24.3789 29.1074 26.7258 29.107 28.0708 30.438L35.4921 37.7747C36.4383 38.7108 37.749 39.2478 39.088 39.2478H41.678C41.8214 39.2478 41.9572 39.2787 42.0826 39.3284L47.7789 33.6967C50.7144 30.7943 50.7144 26.089 47.7789 23.1866Z" fill="#32BCAD"/>
<path d="M70.0057 47.0634C69.5838 47.0634 69.0928 47.1687 68.6072 47.2848V49.2157C68.9436 49.3432 69.3277 49.4045 69.696 49.4045C70.6298 49.4045 71.0727 49.0778 71.0727 48.2249C71.0727 47.4231 70.7099 47.0634 70.0057 47.0634ZM68.2922 50.6495V46.8307H68.5485L68.5752 46.997C69.0073 46.8918 69.605 46.7534 70.032 46.7534C70.3793 46.7534 70.7099 46.8082 70.9872 47.041C71.3078 47.3125 71.4091 47.7493 71.4091 48.2249C71.4091 48.7239 71.2486 49.194 70.8112 49.4538C70.5071 49.631 70.0962 49.7029 69.7279 49.7029C69.3489 49.7029 68.9862 49.6419 68.6072 49.5259V50.6495H68.2922Z" fill="#939598"/>
<path d="M73.555 47.0295C72.5824 47.0295 72.149 47.3112 72.149 48.0992C72.149 48.8615 72.5768 49.2046 73.555 49.2046C74.5217 49.2046 74.9552 48.928 74.9552 48.14C74.9552 47.3778 74.5275 47.0295 73.555 47.0295ZM74.8051 49.2046C74.4827 49.4191 74.0495 49.4807 73.555 49.4807C73.0493 49.4807 72.6156 49.4142 72.299 49.2046C71.9434 48.9744 71.7987 48.5954 71.7987 48.1199C71.7987 47.6487 71.9434 47.2655 72.299 47.0295C72.6156 46.8202 73.0493 46.7534 73.555 46.7534C74.0548 46.7534 74.4827 46.8202 74.8051 47.0295C75.1665 47.2655 75.3052 47.6487 75.3052 48.1142C75.3052 48.5905 75.1607 48.9744 74.8051 49.2046Z" fill="#939598"/>
<path d="M79.312 49.4807L78.2302 47.2184H78.2077L77.1428 49.4807H76.8488L75.6948 46.7534H76.0554L77.0153 49.043H77.0376L78.0802 46.7534H78.3798L79.4507 49.043H79.473L80.4105 46.7534H80.7598L79.6061 49.4807H79.312Z" fill="#939598"/>
<path d="M82.7131 47.0244C81.8427 47.0244 81.5471 47.3928 81.4932 47.9254H83.9329C83.9062 47.3369 83.5888 47.0244 82.7131 47.0244ZM82.7025 49.4807C82.181 49.4807 81.8427 49.4092 81.5741 49.1941C81.2569 48.9331 81.1494 48.5547 81.1494 48.1198C81.1494 47.7053 81.2947 47.2653 81.6547 47.0144C81.9555 46.815 82.3263 46.7534 82.7131 46.7534C83.0626 46.7534 83.4655 46.7891 83.7984 47.0043C84.1907 47.2548 84.2662 47.6952 84.2662 48.1964H81.4827C81.4932 48.7284 81.6761 49.1996 82.729 49.1996C83.229 49.1996 83.6964 49.1226 84.1317 49.051V49.322C83.6802 49.3992 83.1805 49.4807 82.7025 49.4807Z" fill="#939598"/>
<path d="M85.0455 49.4807V46.8268H85.2859L85.3113 46.9847C85.8472 46.843 86.0977 46.7534 86.5687 46.7534H86.6039V47.0478H86.5335C86.1379 47.0478 85.8975 47.1053 85.3414 47.258V49.4807H85.0455Z" fill="#939598"/>
<path d="M88.5573 47.0244C87.6869 47.0244 87.3913 47.3928 87.3374 47.9254H89.7771C89.7504 47.3369 89.433 47.0244 88.5573 47.0244ZM88.5467 49.4807C88.0251 49.4807 87.6869 49.4092 87.4183 49.1941C87.1009 48.9331 86.9935 48.5547 86.9935 48.1198C86.9935 47.7053 87.1389 47.2653 87.4989 47.0144C87.7997 46.815 88.1705 46.7534 88.5573 46.7534C88.9067 46.7534 89.3097 46.7891 89.6425 47.0043C90.0349 47.2548 90.1104 47.6952 90.1104 48.1964H87.3269C87.3374 48.7284 87.5202 49.1996 88.5732 49.1996C89.0729 49.1996 89.5404 49.1226 89.9759 49.051V49.322C89.5244 49.3992 89.0247 49.4807 88.5467 49.4807Z" fill="#939598"/>
<path d="M93.6916 47.1119C93.3554 46.9893 92.9712 46.9305 92.6029 46.9305C91.6691 46.9305 91.2258 47.2451 91.2258 48.0646C91.2258 48.8413 91.5888 49.182 92.293 49.182C92.7149 49.182 93.2059 49.0807 93.6916 48.9744V47.1119ZM93.7504 49.4058L93.7237 49.2458C93.2913 49.3471 92.6935 49.4803 92.2665 49.4803C91.9201 49.4803 91.5888 49.4325 91.3113 49.2035C90.9911 48.9426 90.8896 48.5221 90.8896 48.0646C90.8896 47.5856 91.0498 47.1328 91.4873 46.8881C91.7915 46.7125 92.2025 46.6433 92.5761 46.6433C92.9498 46.6433 93.3128 46.7074 93.6916 46.8137V45.5842H94.0065V49.4058H93.7504Z" fill="#939598"/>
<path d="M98.4473 46.9417C98.0254 46.9417 97.5344 47.0429 97.0488 47.1546V49.0066C97.3905 49.1344 97.7693 49.1933 98.1376 49.1933C99.0714 49.1933 99.5142 48.8792 99.5142 48.0588C99.5142 47.2876 99.1515 46.9417 98.4473 46.9417ZM99.253 49.2407C98.9487 49.4111 98.5378 49.4803 98.1695 49.4803C97.7693 49.4803 97.3691 49.4111 96.9636 49.2781L96.9475 49.406H96.7338V45.5842H97.0488V46.8667C97.4811 46.7715 98.0627 46.6435 98.4736 46.6435C98.8209 46.6435 99.1515 46.6963 99.4288 46.9201C99.7494 47.1813 99.8506 47.6014 99.8506 48.0588C99.8506 48.5387 99.6903 48.9908 99.253 49.2407Z" fill="#939598"/>
<path d="M100.305 50.6218V50.3178C100.46 50.334 100.606 50.3455 100.708 50.3455C101.1 50.3455 101.336 50.229 101.557 49.7695L101.659 49.5484L100.24 46.7534H100.606L101.82 49.1662H101.842L102.997 46.7534H103.357L101.831 49.8917C101.551 50.4617 101.25 50.6495 100.697 50.6495C100.573 50.6495 100.439 50.6386 100.305 50.6218Z" fill="#939598"/>
<path d="M107.665 48.0063H106.559V48.9127H107.671C108.433 48.9127 108.721 48.8355 108.721 48.4569C108.721 48.0521 108.326 48.0063 107.665 48.0063ZM107.462 46.5371H106.559V47.4583H107.468C108.219 47.4583 108.518 47.3768 108.518 46.9927C108.518 46.5835 108.14 46.5371 107.462 46.5371ZM109.179 49.2352C108.772 49.4706 108.281 49.4806 107.383 49.4806H105.695V45.9741H107.344C108.117 45.9741 108.591 45.9842 108.987 46.1994C109.269 46.3531 109.382 46.5885 109.382 46.8955C109.382 47.2638 109.213 47.5099 108.772 47.6738V47.6939C109.269 47.7968 109.591 48.0271 109.591 48.5235C109.591 48.8612 109.455 49.0813 109.179 49.2352Z" fill="#939598"/>
<path d="M112.752 48.3244C112.444 48.2985 112.132 48.2836 111.804 48.2836C111.267 48.2836 111.079 48.3909 111.079 48.6311C111.079 48.8563 111.235 48.9793 111.647 48.9793C111.991 48.9793 112.403 48.9028 112.752 48.8255V48.3244ZM112.908 49.409L112.887 49.2555C112.439 49.3633 111.918 49.4807 111.459 49.4807C111.178 49.4807 110.876 49.4447 110.662 49.2912C110.464 49.1532 110.37 48.928 110.37 48.6671C110.37 48.3751 110.501 48.1041 110.813 47.9662C111.089 47.8383 111.459 47.8282 111.798 47.8282C112.074 47.8282 112.444 47.8432 112.752 47.8639V47.8175C112.752 47.4135 112.481 47.2805 111.741 47.2805C111.454 47.2805 111.105 47.2955 110.771 47.3262V46.8043C111.141 46.7742 111.559 46.7534 111.903 46.7534C112.361 46.7534 112.836 46.7894 113.127 46.9938C113.429 47.2039 113.487 47.4956 113.487 47.8789V49.409L112.908 49.409Z" fill="#939598"/>
<path d="M116.978 49.4807V48.0143C116.978 47.5312 116.712 47.3577 116.235 47.3577C115.883 47.3577 115.441 47.4416 115.066 47.526V49.4807H114.266V46.8268H114.919L114.947 46.995C115.452 46.8745 116.014 46.7534 116.479 46.7534C116.831 46.7534 117.188 46.8004 117.461 47.0267C117.687 47.216 117.773 47.4783 117.773 47.857V49.4807H116.978Z" fill="#939598"/>
<path d="M119.974 49.4807C119.629 49.4807 119.252 49.4349 118.976 49.2097C118.648 48.9536 118.552 48.5496 118.552 48.1141C118.552 47.7051 118.69 47.2597 119.098 47.0093C119.433 46.7992 119.846 46.7534 120.276 46.7534C120.584 46.7534 120.887 46.774 121.221 46.8041V47.3568C120.95 47.3318 120.626 47.3111 120.367 47.3111C119.655 47.3111 119.321 47.5262 119.321 48.1198C119.321 48.6777 119.571 48.9179 120.154 48.9179C120.494 48.9179 120.892 48.8565 121.279 48.7848V49.3168C120.86 49.3992 120.404 49.4807 119.974 49.4807Z" fill="#939598"/>
<path d="M123.427 47.2955C122.73 47.2955 122.423 47.5106 122.423 48.0991C122.423 48.6877 122.725 48.9387 123.427 48.9387C124.119 48.9387 124.421 48.7284 124.421 48.1399C124.421 47.5515 124.125 47.2955 123.427 47.2955ZM124.686 49.2097C124.364 49.4242 123.942 49.4807 123.427 49.4807C122.902 49.4807 122.481 49.4193 122.163 49.2097C121.799 48.9744 121.669 48.5855 121.669 48.1198C121.669 47.6537 121.799 47.2597 122.163 47.0244C122.481 46.8148 122.902 46.7534 123.427 46.7534C123.948 46.7534 124.364 46.8148 124.686 47.0244C125.05 47.2597 125.175 47.6537 125.175 48.1143C125.175 48.5804 125.045 48.9744 124.686 49.2097Z" fill="#939598"/>
<path d="M129.526 49.4806C129.042 49.4806 128.517 49.4119 128.123 49.1315C127.656 48.7968 127.513 48.2806 127.513 47.7245C127.513 47.2282 127.695 46.638 128.306 46.2938C128.779 46.0284 129.367 45.9741 129.96 45.9741C130.394 45.9741 130.839 45.9988 131.324 46.0331V46.638C130.907 46.6084 130.394 46.5837 129.995 46.5837C128.882 46.5837 128.409 46.948 128.409 47.7245C128.409 48.517 128.848 48.8711 129.669 48.8711C130.205 48.8711 130.804 48.7775 131.409 48.669V49.2689C130.804 49.3727 130.171 49.4806 129.526 49.4806Z" fill="#939598"/>
<path d="M133.377 47.2139C132.793 47.2139 132.568 47.4291 132.523 47.8231H134.222C134.201 47.4034 133.962 47.2139 133.377 47.2139ZM133.272 49.4807C132.858 49.4807 132.483 49.4298 132.203 49.1939C131.904 48.9385 131.799 48.5546 131.799 48.1142C131.799 47.7202 131.924 47.2804 132.273 47.0244C132.583 46.7994 132.978 46.7534 133.377 46.7534C133.737 46.7534 134.162 46.7943 134.471 47.0144C134.876 47.3061 134.911 47.7565 134.916 48.2885H132.518C132.533 48.6827 132.738 48.9385 133.447 48.9385C133.887 48.9385 134.376 48.872 134.791 48.8055V49.3119C134.306 49.3941 133.777 49.4807 133.272 49.4807Z" fill="#939598"/>
<path d="M138.407 49.4807V48.0143C138.407 47.5312 138.14 47.3577 137.664 47.3577C137.312 47.3577 136.87 47.4416 136.495 47.526V49.4807H135.695V46.8268H136.347L136.376 46.995C136.88 46.8745 137.442 46.7534 137.908 46.7534C138.259 46.7534 138.617 46.8004 138.889 47.0267C139.116 47.216 139.201 47.4783 139.201 47.857V49.4807H138.407Z" fill="#939598"/>
<path d="M141.169 49.4806C140.815 49.4806 140.492 49.3814 140.315 49.105C140.185 48.917 140.122 48.6618 140.122 48.3068V47.3203H139.591V46.7726H140.122L140.2 45.9741H140.851V46.7726H141.887V47.3203H140.851V48.1659C140.851 48.3694 140.866 48.5415 140.924 48.6669C141.002 48.8442 141.174 48.9118 141.403 48.9118C141.574 48.9118 141.783 48.8856 141.929 48.8601V49.3866C141.689 49.434 141.413 49.4806 141.169 49.4806Z" fill="#939598"/>
<path d="M142.708 49.4807V46.8268H143.285L143.311 46.995C143.778 46.8584 144.124 46.7534 144.566 46.7534C144.586 46.7534 144.616 46.7534 144.656 46.7584V47.3893C144.575 47.3843 144.48 47.3843 144.41 47.3843C144.063 47.3843 143.803 47.426 143.416 47.5209V49.4807L142.708 49.4807Z" fill="#939598"/>
<path d="M147.427 48.3244C147.12 48.2985 146.807 48.2836 146.479 48.2836C145.942 48.2836 145.754 48.3909 145.754 48.6311C145.754 48.8563 145.911 48.9793 146.322 48.9793C146.666 48.9793 147.078 48.9028 147.427 48.8255V48.3244ZM147.584 49.409L147.563 49.2555C147.115 49.3633 146.594 49.4807 146.135 49.4807C145.853 49.4807 145.551 49.4447 145.337 49.2912C145.14 49.1532 145.045 48.928 145.045 48.6671C145.045 48.3751 145.176 48.1041 145.489 47.9662C145.765 47.8383 146.135 47.8282 146.474 47.8282C146.75 47.8282 147.12 47.8432 147.427 47.8639V47.8175C147.427 47.4135 147.156 47.2805 146.416 47.2805C146.13 47.2805 145.78 47.2955 145.447 47.3262V46.8043C145.817 46.7742 146.234 46.7534 146.578 46.7534C147.036 46.7534 147.511 46.7894 147.803 46.9938C148.105 47.2039 148.162 47.4956 148.162 47.8789V49.409L147.584 49.409Z" fill="#939598"/>
<path d="M149.331 45.5842H150.11V49.4803H149.331V45.5842Z" fill="#939598"/>
</svg>
